/* XPM */
static char * config_xpm[] = {
"16 16 3 1",
" 	c None",
".	c #5A5A5A",
"+	c #B5B5B5",
"                ",
"       .        ",
"     ..+..      ",
"   ..+++++..    ",
" ..+++++++++..  ",
" .+..+++++..+.  ",
" .+++..+..+++.  ",
" .+++++.+++++.  ",
" .+++++.+++++.  ",
" .+++++.+++++.  ",
" .+++++.+++++.  ",
" .+++++.+++++.  ",
" ..++++.++++..  ",
"   ..++.++..    ",
"     .....      ",
"       .        "};
