/* XPM */
static char * download_xpm[] = {
"16 16 112 2",
"  	c None",
". 	c #D1F8BB",
"+ 	c #84DD34",
"@ 	c #64DB00",
"# 	c #61DC03",
"$ 	c #5FDD00",
"% 	c #61DC02",
"& 	c #63DF00",
"* 	c #83DC33",
"= 	c #D4F9BD",
"- 	c #F2FBE8",
"; 	c #5ACD05",
"> 	c #60DD0F",
", 	c #65DB1B",
"' 	c #62DA13",
") 	c #A3E86E",
"! 	c #69D91E",
"~ 	c #68E114",
"{ 	c #56C800",
"] 	c #EBFDE9",
"^ 	c #AFDD8F",
"/ 	c #59D315",
"( 	c #61D219",
"_ 	c #5DCB10",
": 	c #55D200",
"< 	c #FFFEFF",
"[ 	c #5ECD18",
"} 	c #5BD315",
"| 	c #63D614",
"1 	c #AEDA90",
"2 	c #A2D87A",
"3 	c #51D413",
"4 	c #4ECC07",
"5 	c #F6FFFD",
"6 	c #70D139",
"7 	c #FFFFFF",
"8 	c #6FD139",
"9 	c #4DD008",
"0 	c #55D311",
"a 	c #9CD87D",
"b 	c #93D780",
"c 	c #4BD01A",
"d 	c #4ECF11",
"e 	c #DBF9CB",
"f 	c #FCFCFC",
"g 	c #DBFBCB",
"h 	c #4ACF16",
"i 	c #4FCD18",
"j 	c #95D97D",
"k 	c #97D380",
"l 	c #48C322",
"m 	c #41C914",
"n 	c #42D512",
"o 	c #DDFBD4",
"p 	c #FDFCFA",
"q 	c #3ED50B",
"r 	c #40C614",
"s 	c #49C21E",
"t 	c #97D281",
"u 	c #8BD57C",
"v 	c #33C713",
"w 	c #3CBF1B",
"x 	c #32C60D",
"y 	c #30C80B",
"z 	c #D8F6D4",
"A 	c #30C60D",
"B 	c #3ABE1B",
"C 	c #32C511",
"D 	c #8BD47A",
"E 	c #89CF7E",
"F 	c #2DC01D",
"G 	c #2ABA18",
"H 	c #8DD67D",
"I 	c #94E086",
"J 	c #8FD985",
"K 	c #94E186",
"L 	c #8BD280",
"M 	c #28BB15",
"N 	c #2DBF20",
"O 	c #8DD17B",
"P 	c #90DC8B",
"Q 	c #1FBA11",
"R 	c #1FB712",
"S 	c #F7FFF5",
"T 	c #F8FFF5",
"U 	c #20BA09",
"V 	c #1FB911",
"W 	c #93DA97",
"X 	c #D8E7D4",
"Y 	c #16AF15",
"Z 	c #1FC017",
"` 	c #17C20E",
" .	c #10C90F",
"..	c #10C90E",
"+.	c #17BF15",
"@.	c #1FBE1A",
"#.	c #16AF11",
"$.	c #DAE8CD",
"%.	c #A2CCA3",
"&.	c #1EB822",
"*.	c #00C614",
"=.	c #05C406",
"-.	c #04C407",
";.	c #05C307",
">.	c #00C709",
",.	c #1DB724",
"'.	c #A2CAAA",
").	c #F5ECEC",
"!.	c #E3DDDD",
"~.	c #E6DDE8",
"{.	c #E5DDE7",
"].	c #E1DDDE",
"                                ",
"                                ",
"      . + @ # $ $ % & * =       ",
"    - ; > , ' ) ) ' ! ~ { ]     ",
"    ^ / ( _ : < < : [ } | 1     ",
"    2 3 4 5 6 7 7 8 7 9 0 a     ",
"    b c d e < f f < g h i j     ",
"    k l m n o p p o q r s t     ",
"    u v w x y z z y A B C D     ",
"    E F G H I J J K L M N O     ",
"    P Q R S < < < < T U V W     ",
"    X Y Z `  .......+.@.#.$.    ",
"      %.&.*.=.-.-.;.>.,.'.      ",
"        ).!.~.{.{.~.].          ",
"                                ",
"                                "};
