/* XPM */
static char * gdis_arcs_xpm[] = {
"59 85 583 2",
"  	c None",
". 	c #FFFFFF",
"+ 	c #007171",
"@ 	c #BFDBDB",
"# 	c #157C7C",
"$ 	c #AACFCF",
"% 	c #E9F3F3",
"& 	c #007170",
"* 	c #0F7A79",
"= 	c #CFE4E4",
"- 	c #2F8C8B",
"; 	c #3F9594",
"> 	c #4F9D9D",
", 	c #007370",
"' 	c #0F7B79",
") 	c #EFF6F6",
"! 	c #4F9E9D",
"~ 	c #DFEDED",
"{ 	c #2F8D8B",
"] 	c #007470",
"^ 	c #9FCAC9",
"/ 	c #7FB9B7",
"( 	c #8FC2C0",
"_ 	c #5FA8A5",
": 	c #0F7C78",
"< 	c #007570",
"[ 	c #9FCBC9",
"} 	c #1F8681",
"| 	c #2F8F8A",
"1 	c #3F9793",
"2 	c #CFE5E4",
"3 	c #0F7D78",
"4 	c #00766F",
"5 	c #BFDCDB",
"6 	c #0F7E78",
"7 	c #AFD4D2",
"8 	c #7FBAB7",
"9 	c #5FA9A5",
"0 	c #00776F",
"a 	c #0F7F78",
"b 	c #3F9993",
"c 	c #DFEEED",
"d 	c #5FAAA5",
"e 	c #00796F",
"f 	c #0F8178",
"g 	c #CFE6E4",
"h 	c #5FABA5",
"i 	c #3F9A93",
"j 	c #007A6F",
"k 	c #0F8278",
"l 	c #6FB4AE",
"m 	c #BFDDDB",
"n 	c #7FBCB7",
"o 	c #2F938A",
"p 	c #007B6E",
"q 	c #2F9489",
"r 	c #EFF6F5",
"s 	c #CFE6E3",
"t 	c #0F8377",
"u 	c #3F9C92",
"v 	c #1F8C80",
"w 	c #1F8B80",
"x 	c #007C6E",
"y 	c #2F9589",
"z 	c #0F8477",
"A 	c #7FBDB6",
"B 	c #BFDEDA",
"C 	c #9FCEC8",
"D 	c #5FADA4",
"E 	c #007D6D",
"F 	c #5FAEA4",
"G 	c #0F8576",
"H 	c #1F8D7F",
"I 	c #3F9E92",
"J 	c #6FB6AD",
"K 	c #007E6D",
"L 	c #7FBEB6",
"M 	c #AFD6D1",
"N 	c #8FC6BF",
"O 	c #9FCFC8",
"P 	c #00806D",
"Q 	c #AFD7D1",
"R 	c #1F8F7F",
"S 	c #0F8776",
"T 	c #EFF7F5",
"U 	c #CFE7E3",
"V 	c #00816C",
"W 	c #0F8875",
"X 	c #7FC0B5",
"Y 	c #03836C",
"Z 	c #52A999",
"` 	c #22927E",
" .	c #138A75",
"..	c #61B1A3",
"+.	c #06846B",
"@.	c #A1D0C7",
"#.	c #44A290",
"$.	c #349B87",
"%.	c #C0E0DA",
"&.	c #09856B",
"*.	c #28947D",
"=.	c #198C74",
"-.	c #E0EFEC",
";.	c #46A390",
">.	c #0D866A",
",.	c #A4D1C7",
"'.	c #D1E8E3",
").	c #1C8E73",
"!.	c #C2E0D9",
"~.	c #10876A",
"{.	c #2E967C",
"].	c #79BBAB",
"^.	c #F0F7F5",
"/.	c #A5D2C7",
"(.	c #96CABD",
"_.	c #6AB4A1",
":.	c #4CA58F",
"<.	c #148869",
"[.	c #A6D2C6",
"}.	c #C4E1D9",
"|.	c #7BBCAA",
"1.	c #6BB4A1",
"2.	c #5DAD97",
"3.	c #89C3B4",
"4.	c #A7D2C6",
"5.	c #178A68",
"6.	c #269171",
"7.	c #60AF97",
"8.	c #B6DACF",
"9.	c #42A084",
"0.	c #34997B",
"a.	c #D3E9E2",
"b.	c #43A084",
"c.	c #1B8B67",
"d.	c #8CC5B3",
"e.	c #E2F0EC",
"f.	c #299371",
"g.	c #D4E9E2",
"h.	c #299271",
"i.	c #C5E2D9",
"j.	c #46A184",
"k.	c #C6E2D9",
"l.	c #A9D3C6",
"m.	c #1F8C66",
"n.	c #73B79F",
"o.	c #65B096",
"p.	c #9CCCBC",
"q.	c #8FC5B2",
"r.	c #81BEA9",
"s.	c #2D9370",
"t.	c #248E66",
"u.	c #76B89F",
"v.	c #F1F7F5",
"w.	c #31956F",
"x.	c #BADBCF",
"y.	c #91C6B2",
"z.	c #C8E2D8",
"A.	c #E3F0EB",
"B.	c #83BFA8",
"C.	c #429D78",
"D.	c #288F65",
"E.	c #C9E3D8",
"F.	c #A1CEBB",
"G.	c #35966F",
"H.	c #F1F8F5",
"I.	c #439D78",
"J.	c #86C0A8",
"K.	c #E4F1EB",
"L.	c #A3CEBB",
"M.	c #88C0A8",
"N.	c #2D9064",
"O.	c #54A581",
"P.	c #479E77",
"Q.	c #7BB99E",
"R.	c #96C7B1",
"S.	c #3A976D",
"T.	c #F2F8F5",
"U.	c #6EB294",
"V.	c #CAE3D8",
"W.	c #319263",
"X.	c #B2D6C4",
"Y.	c #CBE3D8",
"Z.	c #4A9F77",
"`.	c #B1D6C4",
" +	c #BEDDCE",
".+	c #D8EAE1",
"++	c #BEDCCE",
"@+	c #3D986D",
"#+	c #349363",
"$+	c #80BB9D",
"%+	c #73B493",
"&+	c #41996C",
"*+	c #74B493",
"=+	c #E5F1EB",
"-+	c #5AA780",
";+	c #4DA076",
">+	c #67AE8A",
",+	c #B3D6C4",
"'+	c #399462",
")+	c #83BC9C",
"!+	c #A8D0BA",
"~+	c #E6F1EB",
"{+	c #9BC9B0",
"]+	c #B4D7C4",
"^+	c #D9EBE1",
"/+	c #8FC2A6",
"(+	c #3C9661",
"_+	c #85BD9C",
":+	c #CEE4D7",
"<+	c #489C6A",
"[+	c #DAEBE1",
"}+	c #9DCAB0",
"|+	c #60A97E",
"1+	c #6CB088",
"2+	c #B5D7C3",
"3+	c #3F9760",
"4+	c #87BE9B",
"5+	c #E6F2EB",
"6+	c #86BE9B",
"7+	c #57A473",
"8+	c #CEE5D7",
"9+	c #B7D8C3",
"0+	c #4B9E69",
"a+	c #F3F8F5",
"b+	c #42995F",
"c+	c #89BF9B",
"d+	c #C4DFCD",
"e+	c #88BF9B",
"f+	c #DBECE1",
"g+	c #D0E5D7",
"h+	c #A0CCAF",
"i+	c #B8D9C3",
"j+	c #459A5E",
"k+	c #8AC09A",
"l+	c #50A168",
"m+	c #73B386",
"n+	c #5CA772",
"o+	c #67AD7C",
"p+	c #96C6A4",
"q+	c #489C5D",
"r+	c #81BB90",
"s+	c #F3F8F4",
"t+	c #AED3B8",
"u+	c #C6E0CC",
"v+	c #AFD3B8",
"w+	c #C5E0CC",
"x+	c #E8F2EA",
"y+	c #8CC19A",
"z+	c #4B9E5D",
"A+	c #BBDAC2",
"B+	c #8EC299",
"C+	c #61AA71",
"D+	c #62AA71",
"E+	c #56A467",
"F+	c #78B685",
"G+	c #4E9F5C",
"H+	c #F3F9F4",
"I+	c #90C399",
"J+	c #C7E1CC",
"K+	c #B1D5B7",
"L+	c #A6CFAD",
"M+	c #D2E7D6",
"N+	c #64AB70",
"O+	c #51A15B",
"P+	c #87BE8E",
"Q+	c #E9F3EA",
"R+	c #BEDBC1",
"S+	c #92C498",
"T+	c #7CB884",
"U+	c #F4F9F4",
"V+	c #5CA765",
"W+	c #DEEDE0",
"X+	c #9DCAA2",
"Y+	c #54A35A",
"Z+	c #BEDCC1",
"`+	c #B4D6B6",
" @	c #5EA864",
".@	c #DFEDE0",
"+@	c #93C598",
"@@	c #D4E7D5",
"#@	c #A9D1AC",
"$@	c #94C598",
"%@	c #89BF8D",
"&@	c #9ECBA2",
"*@	c #56A459",
"=@	c #76B578",
"-@	c #61AA63",
";@	c #EAF3EA",
">@	c #95C697",
",@	c #A0CBA1",
"'@	c #6BAF6D",
")@	c #6BAF6E",
"!@	c #5AA657",
"~@	c #8DC28B",
"{@	c #EAF4EA",
"]@	c #79B776",
"^@	c #98C796",
"/@	c #83BC81",
"(@	c #CBE3CA",
"_@	c #97C796",
":@	c #5DA856",
"<@	c #C2DEBF",
"[@	c #B8D9B5",
"}@	c #9AC895",
"|@	c #EAF4E9",
"1@	c #D6E9D4",
"2@	c #A4CE9F",
"3@	c #A3CE9F",
"4@	c #CCE3CA",
"5@	c #60A954",
"6@	c #F5F9F4",
"7@	c #7DB974",
"8@	c #B9D9B4",
"9@	c #9BC994",
"0@	c #87BE7F",
"a@	c #C3DFBF",
"b@	c #74B46A",
"c@	c #69AE5F",
"d@	c #63AB53",
"e@	c #80BB73",
"f@	c #EBF4E9",
"g@	c #9DCA93",
"h@	c #B0D5A9",
"i@	c #E1EFDE",
"j@	c #93C588",
"k@	c #65AD52",
"l@	c #BBDBB3",
"m@	c #BCDBB3",
"n@	c #C5E0BE",
"o@	c #6FB25D",
"p@	c #A8D09D",
"q@	c #68AE51",
"r@	c #E2EFDE",
"s@	c #97C787",
"t@	c #A0CC92",
"u@	c #AAD19D",
"v@	c #B3D6A8",
"w@	c #7BB866",
"x@	c #6BB150",
"y@	c #7DBA65",
"z@	c #F5FAF4",
"A@	c #ECF5E9",
"B@	c #90C47B",
"C@	c #87BF70",
"D@	c #E3F0DE",
"E@	c #74B55A",
"F@	c #6EB24F",
"G@	c #A4CF91",
"H@	c #D1E7C8",
"I@	c #9BCA86",
"J@	c #F6FAF4",
"K@	c #77B75A",
"L@	c #E4F0DE",
"M@	c #EDF5E9",
"N@	c #BFDDB2",
"O@	c #ADD39C",
"P@	c #71B44E",
"Q@	c #C9E3BC",
"R@	c #A6D090",
"S@	c #DBECD2",
"T@	c #C1DEB1",
"U@	c #83BD64",
"V@	c #F6FAF3",
"W@	c #C9E2BC",
"X@	c #8CC26F",
"Y@	c #AFD59B",
"Z@	c #EDF5E8",
"`@	c #9DCB85",
" #	c #74B64D",
".#	c #85BF63",
"+#	c #96C879",
"@#	c #B0D69A",
"##	c #B9DAA6",
"$#	c #A7D18F",
"%#	c #B9DAA5",
"&#	c #7CBA58",
"*#	c #A8D18F",
"=#	c #76B74B",
"-#	c #87C062",
";#	c #E5F1DD",
">#	c #CBE4BB",
",#	c #CCE4BB",
"'#	c #D4E8C6",
")#	c #90C46D",
"!#	c #C3DFB0",
"~#	c #DCEDD2",
"{#	c #98C978",
"]#	c #7AB94A",
"^#	c #ABD38D",
"/#	c #C4E0AF",
"(#	c #8AC260",
"_#	c #93C66B",
":#	c #82BD55",
"<#	c #EEF6E8",
"[#	c #9BCA77",
"}#	c #B4D799",
"|#	c #BCDCA4",
"1#	c #7CBB48",
"2#	c #CEE5BA",
"3#	c #A5D081",
"4#	c #C5E1AF",
"5#	c #DEEED1",
"6#	c #BDDDA3",
"7#	c #95C86A",
"8#	c #7FBD47",
"9#	c #AFD58C",
"0#	c #DFEED0",
"a#	c #E7F2DC",
"b#	c #9FCD75",
"c#	c #8FC55E",
"d#	c #F7FAF3",
"e#	c #82BF45",
"f#	c #89C251",
"g#	c #DFEFD0",
"h#	c #B0D68B",
"i#	c #F7FBF3",
"j#	c #91C75C",
"k#	c #99CB68",
"l#	c #EFF7E7",
"m#	c #C0DEA2",
"n#	c #D8EBC5",
"o#	c #99CA68",
"p#	c #84C044",
"q#	c #AAD47E",
"r#	c #C1DFA1",
"s#	c #E8F3DC",
"t#	c #C2DFA1",
"u#	c #D1E7B8",
"v#	c #B2D88A",
"w#	c #BADC95",
"x#	c #BADB95",
"y#	c #87C242",
"z#	c #C3E0A0",
"A#	c #A5D171",
"B#	c #9DCD66",
"C#	c #96CA5A",
"D#	c #A4D171",
"E#	c #8EC64E",
"F#	c #ACD57D",
"G#	c #D1E8B8",
"H#	c #8AC440",
"I#	c #E1F0CF",
"J#	c #91C84C",
"K#	c #D3E9B7",
"L#	c #DAECC3",
"M#	c #E9F3DB",
"N#	c #F0F7E7",
"O#	c #E9F4DB",
"P#	c #8CC640",
"Q#	c #B7DB87",
"R#	c #A8D46F",
"S#	c #E2F0CF",
"T#	c #F7F7F7",
"U#	c #C2C2C2",
"V#	c #949494",
"W#	c #7B7B7B",
"X#	c #777777",
"Y#	c #8A8A8A",
"Z#	c #BBBBBB",
"`#	c #FBFBFB",
" $	c #D1D1D1",
".$	c #BFBFBF",
"+$	c #DBDBDB",
"@$	c #EEEEEE",
"#$	c #A3A3A3",
"$$	c #7C7C7C",
"%$	c #787878",
"&$	c #D7D7D7",
"*$	c #DEDEDE",
"=$	c #9D9D9D",
"-$	c #767676",
";$	c #878787",
">$	c #AFAFAF",
",$	c #EDEDED",
"'$	c #B5B5B5",
")$	c #797979",
"!$	c #8D8D8D",
"~$	c #B2B2B2",
"{$	c #E9E9E9",
"]$	c #B9B9B9",
"^$	c #3D3D3D",
"/$	c #333333",
"($	c #4E4E4E",
"_$	c #6B6B6B",
":$	c #8B8B8B",
"<$	c #C6C6C6",
"[$	c #3F3F3F",
"}$	c #B7B7B7",
"|$	c #7E7E7E",
"1$	c #373737",
"2$	c #CFCFCF",
"3$	c #D6D6D6",
"4$	c #494949",
"5$	c #343434",
"6$	c #E3E3E3",
"7$	c #9B9B9B",
"8$	c #545454",
"9$	c #848484",
"0$	c #9A9A9A",
"a$	c #737373",
"b$	c #474747",
"c$	c #F1F1F1",
"d$	c #707070",
"e$	c #3B3B3B",
"f$	c #6D6D6D",
"g$	c #FCFCFC",
"h$	c #676767",
"i$	c #525252",
"j$	c #9E9E9E",
"k$	c #585858",
"l$	c #F5F5F5",
"m$	c #DFDFDF",
"n$	c #D3D3D3",
"o$	c #DADADA",
"p$	c #434343",
"q$	c #979797",
"r$	c #484848",
"s$	c #DDDDDD",
"t$	c #A1A1A1",
"u$	c #FDFDFD",
"v$	c #D4D4D4",
"w$	c #E7E7E7",
"x$	c #EFEFEF",
"y$	c #A9A9A9",
"z$	c #535353",
"A$	c #FAFAFA",
"B$	c #444444",
"C$	c #747474",
"D$	c #989898",
"E$	c #727272",
"F$	c #4B4B4B",
"G$	c #CBCBCB",
"H$	c #E0E0E0",
"I$	c #A5A5A5",
"J$	c #858585",
"K$	c #757575",
"L$	c #6E6E6E",
"M$	c #E8E8E8",
"N$	c #A0A0A0",
"O$	c #3C3C3C",
"P$	c #FEFEFE",
"Q$	c #CDCDCD",
"R$	c #636363",
"S$	c #C0C0C0",
"T$	c #F8F8F8",
"U$	c #555555",
"V$	c #383838",
"W$	c #666666",
"X$	c #A2A2A2",
"Y$	c #ECECEC",
"Z$	c #B8B8B8",
"`$	c #B3B3B3",
" %	c #868686",
".%	c #5C5C5C",
"+%	c #4F4F4F",
"@%	c #3A3A3A",
"#%	c #B6B6B6",
"$%	c #919191",
"%%	c #515151",
"&%	c #6F6F6F",
"*%	c #363636",
"=%	c #BEBEBE",
"-%	c #ABABAB",
";%	c #9F9F9F",
">%	c #5B5B5B",
",%	c #BCBCBC",
"'%	c #9C9C9C",
")%	c #ADADAD",
"!%	c #5A5A5A",
"~%	c #393939",
"{%	c #C7C7C7",
"]%	c #EBEBEB",
"^%	c #424242",
"/%	c #454545",
"(%	c #646464",
"_%	c #7F7F7F",
":%	c #6C6C6C",
"<%	c #4A4A4A",
"[%	c #E2E2E2",
"}%	c #BABABA",
"|%	c #F9F9F9",
"1%	c #D5D5D5",
"2%	c #C3C3C3",
". . . . . . . . . . . . . . . . . . . . . . . . . . . . . . . . . . . . . . . . . . . . . . . . . . . . . . . . . . . ",
". . . . . . . . . . . . . . . . . . . . . . . . . . . . . . . . . . . . . . . . . . . . . . . . . . . . . . . . . . . ",
". . . . . . . . . . . . . . . . . . . . . . . . . . . . . . . . . . . . . . . . . . . . . . . . . . . . . . . . . . . ",
". . . . . . . . . . . . . . . . . . . . . . . . . . . . . . . . . . . . . . . . . . . . . . . . . . . . . . . . . . . ",
". . . + + @ @ # + + + + + + + + + + + + + + + + + + + $ . . . @ + + + + + + + + + + + + + + + + + + + + $ % + + . . . ",
". . . & & * = = - & & & & & & & & & & & & & & & & & ; . . . . . > & & & & & & & & & & & & & & & & & * @ = * & & . . . ",
". . . , , , ' = ) ! , , , , , , , , , , , , , , , , ~ . . . . . ) ' , , , , , , , , , , , , , , , { ) = ' , , , . . . ",
". . . ] ] ] ] ] ^ . / ] ] ] ] ] ] ] ] ] ] ] ] ] ] / . . . ) . . . ( ] ] ] ] ] ] ] ] ] ] ] ] ] ] _ . = : ] ] ] ] . . . ",
". . . < < < < < < [ . [ < < < < < < < < < < < < } ) . . ) | ) . . . 1 < < < < < < < < < < < < ( . 2 3 < < < < < . . . ",
". . . 4 4 4 4 4 4 4 5 . 5 6 4 4 4 4 4 4 4 4 4 4 7 . . . 8 4 9 . . . 2 4 4 4 4 4 4 4 4 4 4 4 [ . 2 6 4 4 4 4 4 4 . . . ",
". . . 0 0 0 0 0 0 0 a 2 . 2 a 0 0 0 0 0 0 0 0 b . . . c a 0 0 2 . . . d 0 0 0 0 0 0 0 0 a 2 . 2 a 0 0 0 0 0 0 0 . . . ",
". . . e e e e e e e e f g . 2 f e e e e e e e c . . . h e e e i . . . ) f e e e e e e f 2 . c f e e e e e e e e . . . ",
". . . j j j j j j j j j k g . g k j j j j j l . . . g j j j j j m . . . n j j j j j k g . ) o j j j j j j j j j . . . ",
". . . p p p p p p p p p p q r . s t p p p t r . . . u p p p p p v . . . . w p p p t s . r q p p p p p p p p p p . . . ",
". . . x x x x x x x x x x x y . . s z x x A . . . B x x x x x x x C . . . C x x z s . . D x x x x x x x x x x x . . . ",
". . . E E E E E E E E E E E E F . . s G H . . . . I E E E E E E E H . . . . I E s . . J E E E E E E E E E E E E . . . ",
". . . K K K K K K K K K K K K K L . . s M . . . C K K K K K K K K K N . . . B C . . O K K K K K K K K K K K K K . . . ",
". . . P P P P P P P P P P P P P P Q . . . . . . R P P P P P P P P P S T . . . . . U P P P P P P P P P P P P P P . . . ",
". . . V V V V V V V V V V V V V V W U . . . . O V V V V V V V V V V V X . . . . T W V V V V V V V V V V V V V V . . . ",
". . . Y Y Y Y Y Y Y Y Y Y Y Y Y Y Y Z . . . . ` Y Y Y Y Y Y Y Y Y Y Y  .T . . . ..Y Y Y Y Y Y Y Y Y Y Y Y Y Y Y . . . ",
". . . +.+.+.+.+.+.+.+.+.+.+.+.+.+.+.@.. . . . #.+.+.+.+.+.+.+.+.+.+.+.$.T . . . %.+.+.+.+.+.+.+.+.+.+.+.+.+.+.+.. . . ",
". . . &.&.&.&.&.&.&.&.&.&.&.&.&.&.*.. . . . . T *.&.&.&.&.&.&.&.&.&.=.-.. . . . . ;.&.&.&.&.&.&.&.&.&.&.&.&.&.&.. . . ",
". . . >.>.>.>.>.>.>.>.>.>.>.>.>.>.,.. . . . . . '.).>.>.>.>.>.>.>.>.!.. . . . . . !.>.>.>.>.>.>.>.>.>.>.>.>.>.>.. . . ",
". . . ~.~.~.~.~.~.~.~.~.~.~.~.~.{.. . . . ].^.. . /.~.~.~.~.~.~.~.(.. . . _.. . . . :.~.~.~.~.~.~.~.~.~.~.~.~.~.. . . ",
". . . <.<.<.<.<.<.<.<.<.<.<.<.<.[.. . . }.<.|.. . . 1.<.<.<.<.<.2.. . . 3.<.4.. . . [.<.<.<.<.<.<.<.<.<.<.<.<.<.. . . ",
". . . 5.5.5.5.5.5.5.5.5.5.5.5.6.^.. . . 7.5.5.8.. . ^.9.5.5.5.0.^.. . a.5.5.b.. . . . 0.5.5.5.5.5.5.5.5.5.5.5.5.. . . ",
". . . c.c.c.c.c.c.c.c.c.c.c.c.d.. . . e.c.c.c.f.^.. . g.h.c.c.i.. . ^.j.c.c.c.k.. . . l.c.c.c.c.c.c.c.c.c.c.c.c.. . . ",
". . . m.m.m.m.m.m.m.m.m.m.m.m.e.. . . n.m.m.m.m.o.. . . p.m.q.. . . r.m.m.m.m.o.. . . ^.s.m.m.m.m.m.m.m.m.m.m.m.. . . ",
". . . t.t.t.t.t.t.t.t.t.t.t.u.. . . v.w.t.t.t.t.t.x.. . . y.. . . z.t.t.t.t.t.t.A.. . . B.t.t.t.t.t.t.t.t.t.t.t.. . . ",
". . . C.D.D.D.D.D.D.D.D.D.D.E.. . . F.D.D.D.D.D.D.G.H.. . . . . . I.D.D.D.D.D.D.J.. . . K.D.D.D.D.D.D.D.D.D.D.G.. . . ",
". . . L.M.N.N.N.N.N.N.N.N.O.. . . . P.N.N.N.N.N.N.N.Q.. . . . . R.N.N.N.N.N.N.N.S.T.. . . U.N.N.N.N.N.N.N.N.U.V.. . . ",
". . . W.X.Y.Z.W.W.W.W.W.W.`.. . .  +W.W.W.W.W.W.W.W.W.Y.. . . .+W.W.W.W.W.W.W.W.W.`.. . . ++W.W.W.W.W.W.@+++X.W.. . . ",
". . . #+#+$+T.%+#+#+#+#+&+T.. . . *+#+#+#+#+#+#+#+#+#+=+. . . T.&+#+#+#+#+#+#+#+#+-+. . . . ;+#+#+#+#+>+T.,+#+#+. . . ",
". . . '+'+'+)+. !+'+'+'+)+. . . ~+'+'+'+'+'+'+'+'+'+{+. . . . . ]+'+'+'+'+'+'+'+'+'+^+. . . {+'+'+'+/+. )+'+'+'+. . . ",
". . . (+(+(+(+_+. :+<+(+[+. . . }+(+(+(+(+(+(+(+(+|+. . . . . . . 1+(+(+(+(+(+(+(+(+_+. . . ~+(+<+2+. _+(+(+(+(+. . . ",
". . . 3+3+3+3+3+4+. 5+6+. . . . 7+3+3+3+3+3+3+3+3+8+. . . 9+. . . 5+3+3+3+3+3+3+3+3+0+a+. . . 6+[+. 4+3+3+3+3+3+. . . ",
". . . b+b+b+b+b+b+c+. . . . . d+b+b+b+b+b+b+b+b+e+. . . f+b+g+. . . h+b+b+b+b+b+b+b+b+i+. . . . . c+b+b+b+b+b+b+. . . ",
". . . j+j+j+j+j+j+j+k+. . . . k+j+j+j+j+j+j+j+l+a+. . . m+j+n+. . . a+n+j+j+j+j+j+j+j+o+. . . . p+j+j+j+j+j+j+j+. . . ",
". . . q+q+q+q+q+q+q+r+. . . s+q+q+q+q+q+q+q+q+t+. . . u+q+q+q+v+. . . w+q+q+q+q+q+q+q+q+x+. . . y+q+q+q+q+q+q+q+. . . ",
". . . z+z+z+z+z+z+z+A+. . . . B+z+z+z+z+z+z+C+. . . . D+z+z+z+E+s+. . . F+z+z+z+z+z+z+B+. . . . u+z+z+z+z+z+z+z+. . . ",
". . . G+G+G+G+G+G+G+H+. . . . . I+G+G+G+G+G+J+. . . K+G+G+G+G+G+L+. . . M+G+G+G+G+G+I+. . . . . . N+G+G+G+G+G+G+. . . ",
". . . O+O+O+O+O+O+P+. . . Q+R+. . S+O+O+O+T+. . . U+V+O+O+O+O+O+O+Q+. . . S+O+O+O+S+. . W+W+. . . X+O+O+O+O+O+O+. . . ",
". . . Y+Y+Y+Y+Y+Y+Z+. . . `+ @.@. . +@Y+Y+@@. . . #@Y+Y+Y+Y+Y+Y+Y+$@. . . Q+Y+Y+%@. . .@ @&@. . . W+Y+Y+Y+Y+Y+Y+. . . ",
". . . *@*@*@*@*@*@U+. . . =@*@-@;@. . >@>@. . . U+-@*@*@*@*@*@*@*@*@;@. . . ,@=@U+. U+=@*@'@. . . . )@*@*@*@*@*@. . . ",
". . . !@!@!@!@!@~@. . . {@!@!@!@]@U+. . ;@. . . ^@!@!@!@!@!@!@!@!@!@^@. . . U+U+. . /@!@!@!@(@. . . _@!@!@!@!@!@. . . ",
". . . :@:@:@:@:@<@. . . [@:@:@:@:@}@. . . . . |@:@:@:@:@:@:@:@:@:@:@:@1@. . . . . 2@:@:@:@:@3@. . . 4@:@:@:@:@:@. . . ",
". . . 5@5@5@5@5@6@. . . 7@5@5@5@5@5@8@. . . . 9@5@5@5@5@5@5@5@5@5@5@5@0@. . . . a@5@5@5@5@5@b@. . . . c@5@5@5@5@. . . ",
". . . d@d@d@d@e@. . . f@d@d@d@d@d@d@g@. . . . d@d@d@d@d@d@d@d@d@d@d@d@d@f@. . . h@d@d@d@d@d@d@i@. . . j@d@d@d@d@. . . ",
". . . k@k@k@k@l@. . . m@k@k@k@k@k@k@f@. . . . n@k@k@k@k@k@k@k@k@k@k@k@l@. . . . 6@o@k@k@k@k@k@p@. . . n@k@k@k@k@. . . ",
". . . q@q@q@q@r@. . . s@q@q@q@q@q@t@. . . . . . u@q@q@q@q@q@q@q@q@q@t@. . . . . . v@q@q@q@q@q@w@. . . 6@q@q@q@q@. . . ",
". . . x@x@x@y@. . . z@x@x@x@x@x@x@A@. . . A@. . . B@x@x@x@x@x@x@x@C@z@. . D@. . . z@E@x@x@x@x@x@A@. . . C@x@x@x@. . . ",
". . . F@F@F@G@. . . H@F@F@F@F@F@I@. . . J@K@L@. . z@K@F@F@F@F@F@K@D@. . M@K@M@. . . G@F@F@F@F@F@N@. . . O@F@F@F@. . . ",
". . . P@P@P@Q@. . . R@P@P@P@P@P@S@. . . T@P@U@V@. . S@P@P@P@P@P@W@. . . X@P@Y@. . . Z@P@P@P@P@P@`@. . . S@P@P@P@. . . ",
". . .  # # #Z@. . . .# # # # #+#. . . . .# # #@#. . . ## # # #$#. . . %# # #&#V@. . . *# # # # # #. . . .  # # #. . . ",
". . . =#=#-#. . . ;#=#=#=#=#=#>#. . . ,#=#=#=#=#'#. . . )#=#-#V@. . ;#=#=#=#=#!#. . . ~#=#=#=#=#=#'#. . . {#=#=#. . . ",
". . . ]#]#^#. . . /#]#]#]#]#(#. . . . _#]#]#]#]#:#V@. . <#:#;#. . . _#]#]#]#]#(#. . . . [#]#]#]#]#}#. . . |#]#]#. . . ",
". . . 1#1#2#. . . 3#1#1#1#1#4#. . . 5#1#1#1#1#1#1#3#. . . <#. . . 6#1#1#1#1#1#1#2#. . . 2#1#1#1#1#7#. . . 5#1#1#. . . ",
". . . 8#8#<#. . . 8#8#8#8#8#V@. . . 9#8#8#8#8#8#8#8#0#. . . . . a#8#8#8#8#8#8#8#b#. . . . c#8#8#8#8#d#. . . 8#8#. . . ",
". . . e#f#. . . g#e#e#e#e#h#. . . i#e#e#e#e#e#e#e#e#j#i#. . . . k#e#e#e#e#e#e#e#e#l#. . . m#e#e#e#e#n#. . . o#e#. . . ",
". . . p#q#. . . r#p#p#p#p#s#. . . t#p#p#p#p#p#p#p#p#p#u#. . . s#p#p#p#p#p#p#p#p#p#v#. . . l#p#p#p#p#w#. . . x#p#. . . ",
". . . y#z#. . . A#y#y#y#B#. . . . C#y#y#y#y#y#y#y#y#B#. . . . . D#y#y#y#y#y#y#y#y#E#i#. . . F#y#y#y#B#. . . G#y#. . . ",
". . . H#I#. . . J#H#H#H#K#. . . L#H#H#H#H#H#H#H#H#H#M#. . . . . N#J#H#H#H#H#H#H#H#H#K#. . . L#H#H#H#H#i#. . O#H#. . . ",
". . . P#N#. . N#P#P#P#P#N#. . . Q#P#P#P#P#P#P#P#P#R#. . . . . . . Q#P#P#P#P#P#P#P#P#R#. . . . P#P#P#P#S#. . . P#. . . ",
". . . . . . . . . . . . . . . . . . . . . . . . . . . . . . . . . . . . . . . . . . . . . . . . . . . . . . . . . . . ",
". . . . . . . . . . . . . . . . . . . . . . . . . . . . . . . . . . . . . . . . . . . . . . . . . . . . . . . . . . . ",
". . . . . . . T#U#V#W#X#Y#Z#`#. . . . . .  $.$+$. @$#$$$%$&$. . . *$=$$$-$;$>$,$. . . . . T#'$;$-$)$!$~${$. . . . . . ",
". . . . . . ]$^$/$/$/$/$/$/$($+$. . . . . _$/$:$<$[$/$/$/$}$. T#|$/$/$/$/$/$/$1$2$. . . 3$4$/$/$/$/$/$/$5$6$. . . . . ",
". . . . . . 7$/$8$9$7$0$a$1$/$b$c$. . . . _$/$d$e$1$f$;$d$Z#g$h$/$/$i$!$j$:$k$/$U#. . l$b$/$[$9$#$#$Y#k$/$m$. . . . . ",
". . . . . . <$n$. . . . . o$p$/$q$. . . . _$/$/$r$s$. . . . t$/$/$q$u$. . . . v$*$. . }$/$[$w$. . . . . &$x$. . . . . ",
". . . . . . . . . . . . . . y$/$z$. . . . _$/$/$<$. . . . A$B$/$C$. . . . . . . . . . D$/$E$. . . . . . . . . . . . . ",
". . . . . . . . . . . . . . s$/$5$T#. . . _$/$F$. . . . . G$/$/$n$. . . . . . . . . . j$/$8$g$. . . . . . . . . . . . ",
". . . . . . . . H$I$J$%$K$K$L$/$/$M$. . . _$/$-$. . . . . N$/$O$P$. . . . . . . . . . Q$/$/$R$S$T$. . . . . . . . . . ",
". . . . . . T#W#/$/$/$/$/$/$/$/$/$m$. . . _$/$;$. . . . . !$/$U$. . . . . . . . . . . . %$/$/$/$V$W$X$Y$. . . . . . . ",
". . . . . . )$/$/$L$t$Z$S$U#`$/$/$m$. . . _$/$:$. . . . .  %/$.%. . . . . . . . . . . . g$y$+%/$/$/$/$@%I$. . . . . . ",
". . . . . m$/$/$#%. . . . . m$/$/$m$. . . _$/$:$. . . . . $%/$%%. . . . . . . . . . . . . . . m$y$&%*%/$/$=%. . . . . ",
". . . . . >$/$4$. . . . . . <$/$/$m$. . . _$/$:$. . . . . -%/$*%T$. . . . . . . . . . . . . . . . . 6$F$/$_$. . . . . ",
". . . . . ;%/$>%. . . . . . !$/$/$m$. . . _$/$:$. . . . . +$/$/$,%. . . . . . . . . . . . . . . . . . '%/$($. . . . . ",
". . . . . )%/$[$T$. . . . w$^$/$/$m$. . . _$/$:$. . . . . . !%/$U$T$. . . . . . . . . A$. . . . . . . q$/$k$. . . . . ",
". . . . . *$/$/$ %`#. . m$U$~%/$/$m$. . . _$/$:$. . . . . . {%/$/$W$6$. . . ]%0$Q$. . 9$ %&$. . . . n$^%/$!$. . . . . ",
". . . . . . -$/$/$/%_$.%5$/$I$/$/$m$. . . _$/$:$. . . . . . . D$/$/$/$U$(%z$/$/$U#. . _%/$/$p$R$:%z$/$/$<%@$. . . . . ",
". . . . . . l$%$/$/$/$/$p$Z$M$/$/$m$. . . _$/$:$. . . . . . . . }$F$/$/$/$/$/$R$[%. . }%>%/$/$/$/$/$5$E$w$. . . . . . ",
". . . . . . . . 6$}%`$G$|%. . . . . . . . . . . . . . . . . . . . u$1%#%`$2%]%. . . . . . c$G$}$`$2%Y$. . . . . . . . ",
". . . . . . . . . . . . . . . . . . . . . . . . . . . . . . . . . . . . . . . . . . . . . . . . . . . . . . . . . . . ",
". . . . . . . . . . . . . . . . . . . . . . . . . . . . . . . . . . . . . . . . . . . . . . . . . . . . . . . . . . . ",
". . . . . . . . . . . . . . . . . . . . . . . . . . . . . . . . . . . . . . . . . . . . . . . . . . . . . . . . . . . "};
