/* XPM */
static char * home_xpm[] = {
"16 16 106 2",
"  	c None",
". 	c #FDF2CD",
"+ 	c #F7CB2F",
"@ 	c #F8CD50",
"# 	c #EAF2FF",
"$ 	c #FEF0D1",
"% 	c #FBAD26",
"& 	c #FBBA3E",
"* 	c #FBC143",
"= 	c #F2B84B",
"- 	c #FCFFFC",
"; 	c #FBEDD9",
"> 	c #F9A021",
", 	c #FAA642",
"' 	c #ECB555",
") 	c #FC9E22",
"! 	c #FAB03D",
"~ 	c #F9B765",
"{ 	c #E0E6EC",
"] 	c #FCEAD2",
"^ 	c #FD8F1F",
"/ 	c #FD9833",
"( 	c #EFA03E",
"_ 	c #EFF2FB",
": 	c #CEC6AB",
"< 	c #FE8F24",
"[ 	c #FF9B36",
"} 	c #EC9A44",
"| 	c #F7E3D2",
"1 	c #F97D20",
"2 	c #FC8A37",
"3 	c #ED8F41",
"4 	c #E7F5F5",
"5 	c #F8F9F9",
"6 	c #FFFFFF",
"7 	c #CFC1AA",
"8 	c #FC8226",
"9 	c #FA933A",
"0 	c #FA954A",
"a 	c #F56013",
"b 	c #FF782C",
"c 	c #E58448",
"d 	c #E8EFFB",
"e 	c #FAF7FB",
"f 	c #FCFCF9",
"g 	c #F9F8F2",
"h 	c #FFFCFD",
"i 	c #D1B9AA",
"j 	c #FF6D21",
"k 	c #FB7B35",
"l 	c #F9B192",
"m 	c #D0AF96",
"n 	c #C98658",
"o 	c #EEECEF",
"p 	c #FAFBF3",
"q 	c #F4FCF2",
"r 	c #FAFBFF",
"s 	c #FBFAFF",
"t 	c #F4FCFB",
"u 	c #F8FFFF",
"v 	c #C6AB90",
"w 	c #DC926A",
"x 	c #E9E0D5",
"y 	c #DDE4E2",
"z 	c #FEFBFF",
"A 	c #F8F3F5",
"B 	c #FEDDAD",
"C 	c #F8C33E",
"D 	c #FCBF3F",
"E 	c #FAF9FA",
"F 	c #FAF3F4",
"G 	c #DBDAE0",
"H 	c #DDDDDF",
"I 	c #F4F7F3",
"J 	c #F7F9F6",
"K 	c #F8CB99",
"L 	c #FFA134",
"M 	c #E79C49",
"N 	c #F7FCFF",
"O 	c #F7F6F9",
"P 	c #D5DCD4",
"Q 	c #D9D9D9",
"R 	c #F6F6F6",
"S 	c #F3F2F2",
"T 	c #F4C091",
"U 	c #FA8329",
"V 	c #F5A260",
"W 	c #ECF8FB",
"X 	c #F4F3F4",
"Y 	c #D0D0D0",
"Z 	c #DDDDDD",
"` 	c #C2C2C2",
" .	c #DADBDA",
"..	c #EAA180",
"+.	c #FF691A",
"@.	c #FF651C",
"#.	c #DEDEDB",
"$.	c #D3D4D4",
"%.	c #B6B6B6",
"&.	c #E5E5E5",
"*.	c #DBDBDB",
"=.	c #D2CFCF",
"-.	c #BFC3CB",
";.	c #B6C2C5",
">.	c #D7DCE7",
",.	c #DBDADA",
"                                ",
"                                ",
"            . + @ #             ",
"          $ % & * = -           ",
"        ; > , ' ) ! ~ {         ",
"      ] ^ / ( _ : < [ }         ",
"    | 1 2 3 4 5 6 7 8 9 0       ",
"    a b c d e f g h i j k l     ",
"    m n o p q r s t u v w x     ",
"      y z A B C D E F G         ",
"      H I J K L M N O P         ",
"      Q R S T U V W X Y         ",
"      Z `  ...+.@.#.$.%.        ",
"        &.*.=.-.;.>.,.          ",
"                                ",
"                                "};
