/* XPM */
static char * logo_left_xpm[] = {
"56 70 65 1",
" 	c #000000",
".	c #555555",
"+	c #1C1C1C",
"@	c #383838",
"#	c #8D8D8D",
"$	c #FFFFFF",
"%	c #C6C6C6",
"&	c #AAAAAA",
"*	c #E2E2E2",
"=	c #717171",
"-	c #000100",
";	c #3F7634",
">	c #6ECE5B",
",	c #6DCD5B",
"'	c #3E7433",
")	c #080F06",
"!	c #4E9341",
"~	c #70D35D",
"{	c #6CCB59",
"]	c #3B6E31",
"^	c #2F5927",
"/	c #5BAC4C",
"(	c #0C160A",
"_	c #2E5626",
":	c #4D9140",
"<	c #498A3D",
"[	c #081007",
"}	c #4A8C3E",
"|	c #2D5425",
"1	c #5BAB4B",
"2	c #1E3919",
"3	c #5AA94B",
"4	c #6FD25C",
"5	c #59A84A",
"6	c #6FD05C",
"7	c #060C05",
"8	c #070D06",
"9	c #74DA60",
"0	c #010201",
"a	c #74D960",
"b	c #4E9441",
"c	c #48873C",
"d	c #48883C",
"e	c #73D95F",
"f	c #091108",
"g	c #509642",
"h	c #71D45E",
"i	c #6AC858",
"j	c #3A6D30",
"k	c #6AC758",
"l	c #2D5525",
"m	c #4C8E3F",
"n	c #305A28",
"o	c #75DC61",
"p	c #48873B",
"q	c #0D180B",
"r	c #040803",
"s	c #25451E",
"t	c #67C256",
"u	c #12220F",
"v	c #3F7734",
"w	c #3E7534",
"x	c #69C657",
"y	c #55A047",
"z	c #162A13",
"                                                        ",
"                                                        ",
"                                                        ",
"                                                        ",
"                                                        ",
"                                                        ",
"                                                        ",
"                                                        ",
"                                                        ",
"                                                        ",
"                                                        ",
"                                                        ",
"                                                        ",
"                                                        ",
"                                                        ",
"            ...+      @....@       ..+    ..+           ",
"         +#$$$$$%@    &$$$$$$#+    $$.  .*$$$&          ",
"        .*$$$$$$$$.   &$$$$$$$*+   $$. +$$$$$$#         ",
"       +*$*=  +=*$$.  &$&  @&$$&   $$. #$*++%$$         ",
"       &$*+     +&&#  &$&    &$$@  $$. &$&  +..         ",
"       $$=            &$&     $$=  $$. =$$=+            ",
"      .$$+            &$&     &$&  $$.  *$$$%@          ",
"      .$$   &&&&&&&&= &$&     &$&  $$.  +#$$$$.         ",
"      @$$@  $$$$$$$$& &$&     %$&  $$.     .*$$+        ",
"       *$#  &&&&&*$$= &$&    +$$.  $$.      +$$.        ",
"       #$$=     @*$*  &$&   +%$$+  $$. $$=  +$$.        ",
"        %$$%=..&$$$.  &$%..#*$$=   $$. *$*=.%$$         ",
"         &$$$$$$$$.   &$$$$$$$&    $$. @$$$$$$.         ",
"          @&*$$%#+    &$$$$*&@     $$.  @&$$%.          ",
"                                                        ",
"                                                        ",
"                                                        ",
"                                                        ",
"                                                        ",
"                                                        ",
"                                                        ",
"                                                        ",
"                                                        ",
"                                                        ",
"                                                        ",
"                                                        ",
"                                                        ",
"                                                        ",
"                                                        ",
"                                                        ",
"                                                        ",
"                                                        ",
"                                                        ",
"                                                        ",
"                                                        ",
"                                                        ",
"                                                        ",
"                        -;>,'-      )!~{]   )!~{]       ",
"                        ^/((/_      :<[[}|  :<[[}|      ",
"                        12  23      4)  [5  4)  [5      ",
"                        67  8>      ~)  [>  ~)  [>      ",
"                        90  0a      bc))de  bc))de      ",
"                        67  8>      fghijk  fghijk      ",
"                        12  23          lm      lm      ",
"                        n1((1_  o   pqrstu  pqrstu      ",
"                        -v>>w-  o   lx~yz   lx~yz       ",
"                                                        ",
"                                                        ",
"                                                        ",
"                                                        ",
"                                                        ",
"                                                        ",
"                                                        ",
"                                                        ",
"                                                        "};
