/* XPM */
static char * page_xpm[] = {
"16 16 3 1",
" 	c None",
".	c #515151",
"+	c #FFFFFF",
"                ",
"                ",
"   ..........   ",
"  .++++++++++.  ",
"  .++++++++++.  ",
"  .+........+.  ",
"  .++++++++++.  ",
"  .+........+.  ",
"  .++++++++++.  ",
"  .+........+.  ",
"  .++++++++++.  ",
"  .+........+.  ",
"  .++++++++++.  ",
"  .++++++++++.  ",
"   ..........   ",
"                "};
