/* XPM */
static char * user_xpm[] = {
"18 18 178 2",
"  	c None",
". 	c #BEE2F2",
"+ 	c #AFDEEF",
"@ 	c #AEDCEC",
"# 	c #BCDFF0",
"$ 	c #B8E3F2",
"% 	c #CDF1FA",
"& 	c #DBFAFE",
"* 	c #DDFCFF",
"= 	c #D3F6FC",
"- 	c #B9E4F4",
"; 	c #C1E5F2",
"> 	c #B7DAED",
", 	c #C5EDFD",
"' 	c #C9EFFF",
") 	c #D4F3FF",
"! 	c #D7F5FF",
"~ 	c #D0F2FF",
"{ 	c #C9EFFD",
"] 	c #B7E2F0",
"^ 	c #A6DBF6",
"/ 	c #ACE1FC",
"( 	c #B4E7FF",
"_ 	c #B7EAFF",
": 	c #B9ECFF",
"< 	c #BAE9FE",
"[ 	c #B3E5FD",
"} 	c #A9E4FE",
"| 	c #A9D5E9",
"1 	c #AED5EF",
"2 	c #8BD3FB",
"3 	c #89D4FF",
"4 	c #86D4FF",
"5 	c #89D7FB",
"6 	c #8BD9FC",
"7 	c #89D6FF",
"8 	c #8CD5FF",
"9 	c #90D6FF",
"0 	c #9ACFEC",
"a 	c #B0D7F2",
"b 	c #6DC3F8",
"c 	c #60C2FD",
"d 	c #6CC6FE",
"e 	c #75C8FE",
"f 	c #77CAFF",
"g 	c #70C9FF",
"h 	c #66C6FE",
"i 	c #6CC1F9",
"j 	c #8DC8EB",
"k 	c #BDE1F7",
"l 	c #5CB1EC",
"m 	c #58BDFD",
"n 	c #59BEFE",
"o 	c #5CBFFF",
"p 	c #5DC0FF",
"q 	c #5BBEFE",
"r 	c #59BDFD",
"s 	c #59B8F9",
"t 	c #8DC6E7",
"u 	c #D2F2FD",
"v 	c #6FB4E4",
"w 	c #52B6F7",
"x 	c #56BEFD",
"y 	c #54BFFD",
"z 	c #53BEFD",
"A 	c #55BEFF",
"B 	c #55BCFE",
"C 	c #56A9E3",
"D 	c #B8E0F5",
"E 	c #ABD2E9",
"F 	c #9CD7F1",
"G 	c #67B5E6",
"H 	c #4EA9E4",
"I 	c #54BAF9",
"J 	c #55BCFC",
"K 	c #51AFEE",
"L 	c #53A7DF",
"M 	c #97DBF6",
"N 	c #9DC5E2",
"O 	c #8FC8EA",
"P 	c #A5E7FE",
"Q 	c #9DE4FF",
"R 	c #86D3F6",
"S 	c #67B9EA",
"T 	c #63B6E9",
"U 	c #77C7ED",
"V 	c #97E2FE",
"W 	c #9FE5FF",
"X 	c #9FDFF8",
"Y 	c #9DC7E2",
"Z 	c #95C5E3",
"` 	c #86D5FB",
" .	c #80D8FE",
"..	c #71D1FC",
"+.	c #67CDFC",
"@.	c #60CBFE",
"#.	c #5FCBFE",
"$.	c #64CBFC",
"%.	c #6ACDFC",
"&.	c #71CFFC",
"*.	c #77D4FC",
"=.	c #7ABFEB",
"-.	c #75BCE8",
";.	c #66C5FA",
">.	c #54BBFB",
",.	c #4DBBFE",
"'.	c #4EBBFE",
").	c #4DBBFC",
"!.	c #4DBBFB",
"~.	c #4DBBFD",
"{.	c #4DBBFF",
"].	c #4CBBFD",
"^.	c #4EBBFB",
"/.	c #59BBF1",
"(.	c #B6D8EC",
"_.	c #51AAE8",
":.	c #45B1FB",
"<.	c #46AEFD",
"[.	c #45AFFF",
"}.	c #46AEFF",
"|.	c #46AEFE",
"1.	c #45AEFF",
"2.	c #45AFFE",
"3.	c #44B0FC",
"4.	c #45B5F8",
"5.	c #9DC8E2",
"6.	c #49A3E4",
"7.	c #40A7FD",
"8.	c #3FA2FD",
"9.	c #40A2FF",
"0.	c #3EA3FE",
"a.	c #3CA4FE",
"b.	c #3EA3FF",
"c.	c #3FA3FF",
"d.	c #3EA2FC",
"e.	c #43A1FC",
"f.	c #43A8F3",
"g.	c #9BC8E4",
"h.	c #7CB8E8",
"i.	c #4D9FEC",
"j.	c #49A3FD",
"k.	c #3997F7",
"l.	c #3797F9",
"m.	c #3696FC",
"n.	c #3697FC",
"o.	c #3697FA",
"p.	c #3797F8",
"q.	c #429FF9",
"r.	c #51A2F6",
"s.	c #5CA2E3",
"t.	c #C7E6FB",
"u.	c #CDE6FE",
"v.	c #8CBBE9",
"w.	c #5B9CE2",
"x.	c #5DA0EC",
"y.	c #5DA3F2",
"z.	c #58A2F6",
"A.	c #58A2F7",
"B.	c #5CA4F4",
"C.	c #5CA1F1",
"D.	c #599EE2",
"E.	c #73ADE3",
"F.	c #BDDEFD",
"G.	c #D4EDFF",
"H.	c #BADDFA",
"I.	c #9BC8F3",
"J.	c #81B4E7",
"K.	c #75AEE7",
"L.	c #75AEE6",
"M.	c #7BB1E5",
"N.	c #8FC0EE",
"O.	c #B5D7F9",
"P.	c #CEEAFE",
"Q.	c #D4F1FD",
"R.	c #CCEDFD",
"S.	c #CBEDFC",
"T.	c #CFEFFD",
"U.	c #DBF6FF",
"              . + @ #               ",
"            $ % & * = - ;           ",
"          > , ' ) ! ~ { ]           ",
"          ^ / ( _ : < [ } |         ",
"        1 2 3 4 5 6 7 8 9 0         ",
"        a b c d e f g h i j         ",
"        k l m n o p q r s t         ",
"        u v w x y z A B C D         ",
"        E F G H I J K L M N         ",
"        O P Q R S T U V W X Y       ",
"      Z `  ...+.@.#.$.%.&.*.=.      ",
"      -.;.>.,.'.).!.~.{.].^./.(.    ",
"      _.:.<.[.}.|.|.}.1.2.3.4.5.    ",
"      6.7.8.9.0.a.a.b.c.d.e.f.g.    ",
"      h.i.j.k.l.m.n.o.p.q.r.s.t.    ",
"      u.v.w.x.y.z.A.B.C.D.E.F.      ",
"        G.H.I.J.K.L.M.N.O.P.        ",
"              Q.R.S.T.U.            "};
