/* XPM */
static char * cabinet_xpm[] = {
"16 16 3 1",
" 	c None",
".	c #4D4D4D",
"+	c #D5D2D2",
"                ",
"  ............  ",
" .++++++++++..  ",
"............+.  ",
".++++++++++.+.  ",
".++++++++++.+.  ",
".+++....+++.+.  ",
".++++++++++.+.  ",
".++++++++++.+.  ",
"............+.  ",
".++++++++++.+.  ",
".++++++++++.+.  ",
".+++....+++.+.  ",
".++++++++++.+.  ",
".++++++++++..   ",
" ...........    "};
