/* XPM */
static char * connect_xpm[] = {
"15 16 144 2",
"  	c None",
". 	c #458245",
"+ 	c #65A15A",
"@ 	c #58A84E",
"# 	c #53A951",
"$ 	c #65A361",
"% 	c #005C02",
"& 	c #589254",
"* 	c #51AE37",
"= 	c #80E555",
"- 	c #A3FF71",
"; 	c #9FFF67",
"> 	c #A0FF67",
", 	c #9DFF66",
"' 	c #6FE14A",
") 	c #43973A",
"! 	c #75AF7A",
"~ 	c #288E1B",
"{ 	c #219612",
"] 	c #D4CDE4",
"^ 	c #197219",
"/ 	c #228011",
"( 	c #498454",
"_ 	c #63946D",
": 	c #55855D",
"< 	c #408E41",
"[ 	c #56C439",
"} 	c #8FF962",
"| 	c #8EF360",
"1 	c #83F954",
"2 	c #42AD30",
"3 	c #79ED53",
"4 	c #1E8F0E",
"5 	c #D4CFDF",
"6 	c #529457",
"7 	c #588F55",
"8 	c #C7C9DD",
"9 	c #E3E3EC",
"0 	c #AFB7AC",
"a 	c #2B9821",
"b 	c #82ED57",
"c 	c #7EE94F",
"d 	c #77E54B",
"e 	c #71E44D",
"f 	c #1D8E0D",
"g 	c #D4CEDF",
"h 	c #A7C0AD",
"i 	c #CED3DD",
"j 	c #5AD444",
"k 	c #73E94E",
"l 	c #6BE44A",
"m 	c #67DD45",
"n 	c #1A8D0B",
"o 	c #D3CCDF",
"p 	c #359C25",
"q 	c #78E64B",
"r 	c #6FE44B",
"s 	c #6CDB49",
"t 	c #60DA40",
"u 	c #188B09",
"v 	c #D0CBDD",
"w 	c #005B00",
"x 	c #2EA11A",
"y 	c #2C9E17",
"z 	c #2A9C17",
"A 	c #279A15",
"B 	c #249613",
"C 	c #006D00",
"D 	c #D1CFE4",
"E 	c #F5E6FC",
"F 	c #D3CCE2",
"G 	c #D4CDE1",
"H 	c #D3CDE1",
"I 	c #D6CFE3",
"J 	c #DAD1DF",
"K 	c #CED4D8",
"L 	c #38A827",
"M 	c #2F9F21",
"N 	c #319D20",
"O 	c #309A21",
"P 	c #27991A",
"Q 	c #329C24",
"R 	c #528C56",
"S 	c #7CEC4A",
"T 	c #71E14A",
"U 	c #67DD42",
"V 	c #5CD744",
"W 	c #60D739",
"X 	c #4F845F",
"Y 	c #CDC8D7",
"Z 	c #75EE4B",
"` 	c #68DF47",
" .	c #62DB40",
"..	c #5AD83C",
"+.	c #095E0B",
"@.	c #D3C7E2",
"#.	c #76E64D",
"$.	c #65DC45",
"%.	c #5BD73A",
"&.	c #55D23B",
"*.	c #43BA2C",
"=.	c #57905B",
"-.	c #2A7C2A",
";.	c #C2CCC8",
">.	c #69E846",
",.	c #52CB30",
"'.	c #53DB3E",
").	c #52CF35",
"!.	c #4ACA31",
"~.	c #39C422",
"{.	c #2A8924",
"].	c #71A570",
"^.	c #5F9E61",
"/.	c #006300",
"(.	c #91ABA7",
"_.	c #D8D3D9",
":.	c #55D23A",
"<.	c #648575",
"[.	c #458545",
"}.	c #2AA419",
"|.	c #4CCB32",
"1.	c #44C52F",
"2.	c #3AC721",
"3.	c #38C126",
"4.	c #25B217",
"5.	c #179D0B",
"6.	c #1D8120",
"7.	c #9CA9A8",
"8.	c #D6CEDD",
"9.	c #799F84",
"0.	c #D1CDDB",
"a.	c #93AB9F",
"b.	c #588F5E",
"c.	c #32882F",
"d.	c #298420",
"e.	c #258424",
"f.	c #3F8649",
"g.	c #7C9988",
"h.	c #CDC9D4",
"i.	c #D9D5E1",
"j.	c #E0DCE9",
"k.	c #C6D0E1",
"l.	c #D3CFE0",
"m.	c #D6CCDE",
"        . + @ # $         %   ",
"    & * = - ; > , ' ) ! ~ { ] ",
"  ^ / ( _ : < [ } | 1 2 3 4 5 ",
"6 7 8       9 0 a b c d e f g ",
"h i               j k l m n o ",
"                p q r s t u v ",
"              w x y z A B C D ",
"              E F G H I J K   ",
"  L M N O P Q R               ",
"  S T U V W X Y               ",
"  Z `  ...+.@.                ",
"  #.$.%.&.*.=.            -.;.",
"  >.,.'.).!.~.{.].    ^./.(._.",
"  :.<.[.}.|.1.2.3.4.5.6.7.8.  ",
"  9.0.  a.b.c.d.e.f.g.h.      ",
"  i.        j.k.l.m.          "};
