/* XPM */
static char * graph_xpm[] = {
"16 17 3 1",
" 	c None",
".	c #000000",
"+	c #2577FF",
"                ",
"..              ",
" .              ",
" .             +",
"..            + ",
" .           +  ",
" .     +    +   ",
"..    + +  +    ",
" .   +   ++     ",
" .  +           ",
".. +            ",
" .+             ",
" .              ",
"..              ",
" .              ",
" ...............",
"   .  .  .  .  ."};
