/* XPM */
static char * tb_defect_xpm[] = {
"16 16 4 1",
" 	c None",
".	c #8C8C8C",
"+	c #000000",
"@	c #1B3AD4",
"                ",
" .+.   .+.   .+.",
" +++   +++   +++",
" .+.   .+.   .+.",
"                ",
"                ",
"  .+.   @   .+. ",
"  +++   @   +++ ",
"  .+.   @   .+. ",
"      @@@@@     ",
"                ",
"    .+.   .+.   ",
"    +++   +++   ",
"    .+.   .+.   ",
"                ",
"                "};
