/* XPM */
static char * tb_dynamics_xpm[] = {
"16 16 39 1",
" 	c None",
".	c #B2B2B2",
"+	c #FEFEFE",
"@	c #FFFFFF",
"#	c #FDFDFD",
"$	c #848484",
"%	c #DEDEDE",
"&	c #FEF6F5",
"*	c #FF9B8E",
"=	c #FD6D57",
"-	c #676767",
";	c #907977",
">	c #EC6053",
",	c #FF614E",
"'	c #FF7A65",
")	c #FD6C57",
"!	c #674340",
"~	c #74261E",
"{	c #C63D31",
"]	c #FA5241",
"^	c #FF604D",
"/	c #FD614E",
"(	c #B1B1B1",
"_	c #DDCFCE",
":	c #A35851",
"<	c #C43C30",
"[	c #EA493B",
"}	c #EB4A3B",
"|	c #939393",
"1	c #F0F0F0",
"2	c #FDFCFC",
"3	c #B88985",
"4	c #892A22",
"5	c #6C6C6C",
"6	c #AAAAAA",
"7	c #E8E8E8",
"8	c #656565",
"9	c #696969",
"0	c #818181",
"                ",
" .+@#           ",
" $%&*=          ",
" -;>,')         ",
" !~{]^/         ",
" (_:<[}         ",
" |1234          ",
" 5671           ",
" 890            ",
"       85|(!-$. ",
"       961_~;%+ ",
"       072:{>&@ ",
"        13<],*# ",
"         4[^'=  ",
"          }/)   ",
"                "};
