/* XPM */
static char * tb_overlay_xpm[] = {
"16 16 3 1",
" 	c None",
".	c #8E8E8E",
"+	c #353535",
"                ",
"                ",
"     .+++++++.  ",
"     +       +  ",
"   .++++++++ +  ",
"   +       + +  ",
" .+++++++. + +  ",
" +       + + +  ",
" +       + + +  ",
" +       + + +  ",
" +       + ++.  ",
" +       + +    ",
" +       ++.    ",
" +       +      ",
" .+++++++.      ",
"                "};
