/* XPM */
static char * tb_surface_xpm[] = {
"16 16 4 1",
" 	c None",
".	c #383F38",
"+	c #657765",
"@	c #869E86",
"                ",
"       ..       ",
"     ..++..     ",
"   ..++++++..   ",
" ..++++++++++.. ",
".++++++++++++++.",
"...++++++++++...",
".+@..++++++..@+.",
".+@@@...+..@@@+.",
".+@@@@@@.@@@@@+.",
".+@@@@@.@@@@@@+.",
".+@@@@@@.@@@@@+.",
". @@@@@.@@@@@@ .",
"    @@@@.@@@    ",
"      @.@@      ",
"        .       "};
