/* XPM */
static char * tb_info_xpm[] = {
"16 16 111 2",
"  	c None",
". 	c #3F6EAA",
"+ 	c #3B6CA7",
"@ 	c #416FAA",
"# 	c #5A85BA",
"$ 	c #8CB1D9",
"% 	c #87ACD6",
"& 	c #80A8D4",
"* 	c #81A9D4",
"= 	c #8AAFD8",
"- 	c #91B4D9",
"; 	c #5D89BC",
"> 	c #3B6CA9",
", 	c #3B6CA8",
"' 	c #769DCB",
") 	c #76A2D1",
"! 	c #77A1D0",
"~ 	c #81A8D3",
"{ 	c #84AAD5",
"] 	c #87ACD5",
"^ 	c #86ACD5",
"/ 	c #7EA6D2",
"( 	c #7DA6D3",
"_ 	c #7BA1CD",
": 	c #5683B9",
"< 	c #6F9CCE",
"[ 	c #719DCE",
"} 	c #7EA7D3",
"| 	c #89ADD6",
"1 	c #EDF3F8",
"2 	c #90B3D9",
"3 	c #7AA3D1",
"4 	c #77A2D1",
"5 	c #5B86BB",
"6 	c #3F6FAA",
"7 	c #7AA4D3",
"8 	c #6596CB",
"9 	c #749FCF",
"0 	c #81A8D4",
"a 	c #8EB2D8",
"b 	c #A5C1E0",
"c 	c #ACC6E2",
"d 	c #97B8DB",
"e 	c #8AAFD7",
"f 	c #7DA5D2",
"g 	c #82A9D5",
"h 	c #4170AB",
"i 	c #6B9ACD",
"j 	c #6494CA",
"k 	c #729ECE",
"l 	c #80A8D3",
"m 	c #92B4DA",
"n 	c #93B4D9",
"o 	c #88AED6",
"p 	c #7BA5D2",
"q 	c #6D9BCD",
"r 	c #729ECF",
"s 	c #5E91C8",
"t 	c #6192C9",
"u 	c #79A3D1",
"v 	c #88ADD6",
"w 	c #76A1D0",
"x 	c #6999CC",
"y 	c #6092C9",
"z 	c #6193C9",
"A 	c #5A8EC7",
"B 	c #6696CB",
"C 	c #709DCE",
"D 	c #7BA4D1",
"E 	c #6E9BCD",
"F 	c #6293C9",
"G 	c #5C8FC7",
"H 	c #73A0D0",
"I 	c #588DC6",
"J 	c #5D8FC7",
"K 	c #6A99CC",
"L 	c #6E9CCE",
"M 	c #6B99CC",
"N 	c #5A8DC6",
"O 	c #6D9CCD",
"P 	c #4270AB",
"Q 	c #86ACD6",
"R 	c #5F91C8",
"S 	c #598DC6",
"T 	c #5A8EC6",
"U 	c #5D90C8",
"V 	c #598EC6",
"W 	c #82AAD5",
"X 	c #4372AC",
"Y 	c #5D88BB",
"Z 	c #719ECF",
"` 	c #6093C9",
" .	c #5B8FC7",
"..	c #5389C4",
"+.	c #6C9BCD",
"@.	c #5E89BC",
"#.	c #3D6CA8",
"$.	c #7EA4CE",
"%.	c #74A0D0",
"&.	c #6595CA",
"*.	c #7DA3CE",
"=.	c #3C6BA6",
"-.	c #38639A",
";.	c #608ABE",
">.	c #8DB2D9",
",.	c #7CA6D2",
"'.	c #6A9ACC",
").	c #8BB0D8",
"!.	c #618BBD",
"~.	c #376197",
"{.	c #3F699F",
"                                ",
"          . + + + + @           ",
"      + # $ % & * = - ; >       ",
"    , ' ) ! ~ { ] ^ / ( _ >     ",
"    : < [ } | 1 1 2 ] 3 4 5     ",
"  6 7 8 9 0 a b c d e f < g h   ",
"  + i j k l m 1 1 n o p q r +   ",
"  + s t q u ^ 1 1 v 0 w x y +   ",
"  + z A B C w 1 1 D ! E F G +   ",
"  + H I J B K 1 1 L M j N O +   ",
"  P Q R S T U 1 1 t R S V W X   ",
"    Y Z `  ...1 1 ..S U +.@.    ",
"    #.$.%.&.R ....R F C *.=.    ",
"      -.;.>.,.'.K p ).!.~.      ",
"          {.+ + + + +           ",
"                                "};
